<?xml version="1.0" encoding="utf-8"?>
<svg viewBox="15.700007438659668 59.30000305175781 1361.10009765625 822.7999877929688" width="1361.10009765625" height="822.7999877929688" xmlns="http://www.w3.org/2000/svg"><g transform="matrix(1, 0, 0, 1, 0, 0)"><path id="XMLID_29_" fill="#D2713C" d="M149.6,142c-6.4,2.4-10.5,4.7-10.8,6.7c0,0-2.9,0.3-3.9,3.1c-1.1,2.8-0.7,7.2,2.4,9.9&#10;&#9;c0,0-4.5,3.2-5.1,9.6s-2.6,17.8-2.6,17.8s-3.5-0.5-4.2-0.2s-2.3,2.5-0.8,6.6s3.2,10.6,5.5,10.4c0,0,0.2,2.8,2.3,2.9s3.2,0.8,2.7,1.7&#10;&#9;s-0.7,2.9-0.6,4.1s2.1,3.3,2.1,3.3s-0.3,2-0.3,3s0.4,2.3,0.5,2.8c0.1,0.5-1.6,1-1.2,3.9c0.3,2.9,2.9,7.6,7.8,7.2s8-0.8,8-0.8&#10;&#9;s2.7,4.7,3.6,7.8c0.9,3.1,4.1,8.1,4.1,8.1s-3.2,1.9-8.2,3.7c-5.1,1.8-8.1,4.4-10.8,9.4c-2.7,5-6,16.5-8.2,23.4s-1.4,24.3,0.2,32&#10;&#9;c1.7,7.7,1.7,10.6-1.7,18.5c-3.4,7.9-3.8,22.1-5.5,27c-1.7,4.9-3.5,10.5-10.7,16.8s-24.8,40.9-35.4,52&#10;&#9;c-10.6,11.1-19.4,23.6-22.6,25.6c-3.2,2-13.4,9.3-16,12.5c-2.6,3.2-6.2,13-7,15.3c-0.8,2.3-0.7,4.8,3.6,6.2c0,0,0,3.7,2,4.3&#10;&#9;c2,0.6,4.9,2.7,5.9,3.1s4.1,0,4.1,0s1.5,1.6,3.6,1.5s3.2-0.2,4,0.3c0.8,0.6,4.5,0,5.9-1.2c1.4-1.2,3.3-2.4,2-4.1&#10;&#9;c-1.3-1.6-2.5-1.8-2.5-1.8s-1.4-1.6-2-1.7c-0.6-0.1,3-2.9,3.2-3.8c0.2-1,7-5.4,9.6-9s5.8-10.2,7.5-14.2c1.7-4.1,3.7-4.9,11.6-11&#10;&#9;c7.8-6.2,41.3-32.4,47-41.6c0,0-0.6,37.1,2.3,42c2.9,5,4.8,9.2,3.6,10.8c-1.2,1.7-4.5,4.8-4.2,6.5c0.3,1.7,3.3,2,1.7,5&#10;&#9;s2.3,4,5.2,3.7c2.9-0.3,2.5,0.8,1.9,4.6c-0.6,3.8,0.7,8.2,0.9,13.3c0.2,5.1,0.7,19.7,0.5,22.1c-0.2,2.5,1.6,6.8,1.6,6.8&#10;&#9;s-1.3,4.5-2.6,5.9s-2.3,2.9-2.3,6.4c0,3.5-1.9,7.9-3.3,12c-1.4,4.1-12.4,34.2-14.6,39s-4.8,5.6-5.4,8.7s-1.1,6.5-1.7,8.9&#10;&#9;s-2.4,3.3-3.3,5.3c-0.9,2-1.1,2-1.4,4.7c-0.3,2.7-3,6-3.6,8.4s0.5,4.7,1.5,8c1.1,3.3-3,8.7-1.4,13.7s2.1,6,1.1,9.8s-2.1,5.7-1.2,8.9&#10;&#9;c0.9,3.2-15.5,52.7-19.4,60.5c-3.9,7.8-3.3,19.9-4.5,24.1s-10.1,7.7-11,10.6s-0.7,4.5-0.2,7.5s-8.1,2.7-8.1,7c0,4.3,0.5,5.4,0.5,5.4&#10;&#9;s-4.1,0.3-5.9,1c-1.8,0.7-14.9,6.2-19.2,7.6c-4.3,1.4-10.1,0.9-14.7-1.9c-4.6-2.8-9.6-0.9-11.3,1.9c-1.7,2.8-4.5,8.5,3.5,15.1&#10;&#9;s25.9,13.6,33.3,17.7s22.7,11.4,28.9,13c6.2,1.6,9,3.7,11,1c1.9-2.7,8.6-25,8.5-28c-0.1-3.1,1.2-12,3.8-12.5&#10;&#9;c2.6-0.6,9.6-3.5,7.5-11.4s-1.5-10.8,3.6-13.3c5.1-2.4,18.3-33,24.2-49.7c5.9-16.7,15.6-47.6,15.1-52.1c-0.5-4.5,0.3-6.1,1.4-6.7&#10;&#9;c1-0.7,1.4-2.1,1.1-4.4c-0.2-2.3-1-3.1,0.1-5.3c1.1-2.3,3.7-0.2,2.6-6.8s-0.6-4.9,1.6-9.9c2.1-5.1,1.5-4.2,2-7.1s3.2-10.6,7.2-15.7&#10;&#9;c3.9-5.1,8.6-10.5,8.6-10.5s19.5,42.3,21.8,46.2s6.8,4.5,7.5,6.8c0.7,2.3,0.9,7.2,2.9,8.8c2,1.6,4.1,0.5,4.1,5.4c0,5,1.8,5,2.9,11.1&#10;&#9;s23.8,63.3,26.8,68.5c3,5.1,2,7.9,0,9.5c-2,1.6-6.3,4.3-5.3,7.5c0.9,3.2-0.2,7.5,4.5,8.4c4.7,0.9,6.3,1.8,6.6,3.2&#10;&#9;c0.2,1.4,4.1,5,0,8.1c-4.1,3.2-1.4,2.3-6.6,9c-5.2,6.8-21.7,20.1-27.3,21.5c-5.6,1.4-18.8,4.1-18.5,9c0.2,5,0.2,7.3,10.7,7.1&#10;&#9;c10.5-0.2,83.4-7.5,90.2-9.3c6.8-1.8,6.6-5.9,3.2-18.2c-3.5-12.4-2.3-13.1-0.6-15.2c1.7-2.1-3.8-9-6.6-13.6c-2.9-4.5-4.5-6-6.3-6.8&#10;&#9;c-1.8-0.8-0.8-4.5,1.2-6.5c2-2,5.9-5.7,0.6-7.7c-5.3-2-11.9-33.1-21.4-73.4c-9.5-40.2-13-40.1-16.3-48.3c-3.3-8.3-2.1-6.5-3.9-11.3&#10;&#9;s-3.6-1.8-4.8-8.3c-1.2-6.5-6.2-18.1-5-24.4c1.2-6.3-13.9-59-15.7-63c-1.8-3.9-0.5-5,4.6-12.9c5.1-7.9,13.7-31.1,13.7-31.1l10.2-0.3&#10;&#9;c0,0-1.2-25.9-4.8-37.4c-3.6-11.4-5.1-13-3.8-19.9s1.7-22.3,1.5-24.9c-0.2-2.6,5.6-17,6.5-22.7s1.8-10.1,1.8-10.1s7.8,7.1,10.2,9.3&#10;&#9;c2.4,2.3,5.3,5.3,5.3,9.8s-1.1,19,0.6,31.6c1.7,12.7,5.1,28.8,4.8,38.9c-0.3,10.1-0.6,17.5-1.1,22.6c-0.5,5.1-0.2,10.4-0.9,14&#10;&#9;c-0.8,3.6-5.3,13.4-4.5,17c0.8,3.6,3.6,16,4.4,17.5s-0.9,5.2-0.1,6.1c0.8,0.9,5.3-0.4,5.3-0.4s1.2,3.1,1.1,3.7&#10;&#9;c-0.1,0.6-0.8,3.1-0.2,3.8s4.5,2.8,6.3,1.6c1.7-1.2,2.1-2.9,2.1-2.9s2.3,1.2,3.3,1.4s5.4-2.6,5.9-3.5c0.5-0.9-0.2-2.6-0.2-2.6&#10;&#9;s5-0.5,6-2.3c1-1.9,0.5-3.8,0.5-3.8s5-1.1,5.3-3.3c0.4-2.3,0.1-6.1-0.4-8.2c-0.5-2.1,1.6-4.6-2.4-14.5c-4-9.9-5.8-11.5-6.1-13.6&#10;&#9;c-0.3-2-3.8-6.3-1.9-17.5c2-11.1,5.3-47.7,4.4-64s1.1-21.2-6.8-38.9c-7.9-17.6-21.6-50.7-21.6-50.7l0.5-1.7c0,0-2.8-4-4.5-7.9&#10;&#9;c-1.7-4-1.4-4.3-2.5-5.8c-1.1-1.5,1-3.3-1.6-6.9c-2.6-3.6-3.2-3.6-3.2-8.4c0-4.7-1.1-11.7-5.9-15.8c-4.7-4.1-14.3-10.1-18.5-15.7&#10;&#9;c-4.2-5.6-14.9-13-19.9-16.3s-8.3-3.1-8.3-3.1s-14-5.2-15.6-13.4c-1.6-8.2-1.4-12.5-1.4-12.5s3.3-0.8,7.5-8.2&#10;&#9;c4.1-7.4,5.6-19.1,3-25.8c0,0,2-2.9,0-7c-2-4.1-7.8-21.3-14.2-24.4c-6.4-3.1-13.9-4.8-17.2-4.8S160,138.2,149.6,142z" transform="matrix(1, 0, 0, 1, 0, 0)"/><path id="XMLID_28_" fill="#E88C3B" d="M496.1,298.4c-10.8-2.3-26.7-4.8-32,5.7c-5.3,10.5-14,24.5-16.5,27.8s-4.8,8-2.2,17.3&#10;&#9;c2.5,9.3,4.4,13.3,8.9,14.2c1.7,0.3,3.7,1.4,4.8,3.7c1.1,2.2,5.8,4.6,6.7,8.2c0.9,3.6,0.6,10,1.5,11.8s4.4,1.7,5.9,1.2&#10;&#9;c1.5-0.4,2.6,1.6,2.8,2.9c0.2,1.3,1.2,3.4,2.7,3.1c1.5-0.3,2-1.2,2.2-1c0.2,0.2-0.1,1.8,1.1,2.5c1.2,0.7,3.4,0.4,4.1,2&#10;&#9;s1,4.9,5.7,5.8c0,0-13,18.3-14.1,25.5c0,0-0.4-0.2-3.6,0.8c-3.2,0.9-5.1,1.2-2.5,11.2c2.6,10,6.8,51,9.4,57.7c0,0-2.3,25.5-0.7,38.5&#10;&#9;c0,0-3.8,8.5-3.7,11.7s0.8,4.4,0.8,4.4s-1.2,6.9-1,9.5s3.5,6.9,3.5,6.9s-1.8,6.8-2.6,9.8s-1.2,6.5-1.2,7.4s1.1,0.8-1.9,3.1&#10;&#9;s-3.9,2.5-3.1,5.6s-2,5.1-3.1,7.6s-1.5,4.2-1.1,6.5s-0.2,0.8-1,4.8s-0.8,5.4-0.5,7.6s1.2,6.1-3.9,14.8s-8.8,10.8-10.6,19.8&#10;&#9;c-1.8,9,0,11.5-3.7,16.5c-3.7,5-1.5,5.7-0.2,7.7s3.3,2.2-0.2,6c-3.5,3.8-4.8,3-3.5,7.8c1.3,4.8,1.3,9.2,0.2,11.3&#10;&#9;c-1.2,2.2-0.8,3.3-0.7,7.8s-2.2,2-2.8,10.5s-0.3,19.3-2.5,20.2c-2.2,0.8-3-1-4,2.3c-1,3.3-1.8,1.5-1,4.8s1.2,2.2-0.3,5&#10;&#9;s-5.5,2.9-6.4,7.1s-10.1,2.1-11.8,3.4s-14,0.1-15.9,1.8s-11-1.9-15.8-4.6s-10.8-0.8-12.2,1.5s-3.2,3.4,1.9,8.5s11.8,12.9,31.8,22.6&#10;&#9;s39.1,19.2,42.2,18.6s7-6.9,6.8-8.8s5.5-13.1,5.8-16.4s-1.6-6.2-1.6-6.2s7.8-0.3,7.4-9.5c-0.3-9.2,0.2-9.5,3-10.3&#10;&#9;c2.8-0.8,2.2-3.3,2.2-6.8s3-4,4-9.3s1.7-19.8,4.7-22.5s3.8-8.8,3.5-12.2s1.8-2.2,2.8-7.2s-0.5-2.2,0.2-8.5s-1.2-8,3.5-11.2&#10;&#9;s18-10.8,20.2-17c0,0,3.5,20.8,7.2,27s3.5,5,3.8,10.8s5.5,0.5,6.2,4.2s-2,7,2.2,10.5s7,0.8,7.5,6.8s4.2,29.8,7.2,31.8s2.9,4,2.1,6.4&#10;&#9;s4.2,3.9,4.4,4.8s0.6,3.2-0.6,4.5s-2.9,7.5-2.2,8.6s-5,4.9-8.5,6.9s-10.6,4.9-11,7.9s-6.5,6-11.5,5.8s-12.1-0.6-14.2,3.6&#10;&#9;s-2.4,8,6.9,10.8s20.8,5.4,39.9,4.6s31.5-1.2,39.5-4.3c8-3.2,8.3-5.3,6.2-12.8c-2.2-7.5-2.7-14.3-2.7-17.5c0-3.2-3.5-4.7-3.5-4.7&#10;&#9;s-0.3-5.5-1.7-10.3c-1.3-4.8-3-2.6-2.1-5.9c0.9-3.3,2.2-7.1-0.8-12.9s-2.8-3.3-4.7-14.5s-9-39.5-14.2-44.8s-6.5-3.5-5.2-9&#10;&#9;s-1.5-16.2-4-17.8s-4.5-3.5-0.8-8.2s1.2-10.8,0.8-16s-2-9,0.5-10s9.2-13.5,7.8-18s-1.8-5.8,8.2-8s17.5-1.5,15.5-8.2&#10;&#9;s-3.3-17.7-3.5-18.8c-0.2-1.2-2.2-9-2.2-9s7.7,2.3,16.7,0.8c9-1.5,21-5.5,22.5-9s4.8-4.9,8-4.7c3.2,0.2,12.2-35.5,16.2-50.3&#10;&#9;s0-23.8,0-23.8s6-26.2,3-45s-5-20.8-5-20.8s-3.5-8.8-12-10.2s-47.1-6.6-47.1-6.6s-4-1.8-5.8-3.5c-1.8-1.7-7.2-0.5-8.8-1.3&#10;&#9;c-1.7-0.8-17-6.5-17-6.5l1.5,13.8c0,0,0.5-4.8,5.2-4.2s10.2,0.5,10.2,0.5l-4.6,11.2c0,0-12.1-21.9-13.4-24.8s-4.1-3.4-2.8-7.6&#10;&#9;s1.2-7.5-1.6-7.4s-10.1,0.2-10.1,0.2s-4.5-10.2-4.5-11.5s1.8-3,1.8-4.7s2.4-11.6,1.4-15.5s0.4-11.4-0.6-14.6s-5-14.8-8.8-18.4&#10;&#9;s0-3.5-6.5-7.7c-6.5-4.2-10-5.4-14.5-5.4S496.1,298.4,496.1,298.4z" transform="matrix(1, 0, 0, 1, 0, 0)"/><path id="XMLID_3_" fill="#E88C3B" d="M938.1,214.8c-8.5,1.7-21.9,10.6-26.1,14.3s-1.9,17.5,0.7,22.2s3.6,6.5,1.6,9.9&#10;&#9;s-4,8.2-4.7,9.6c-0.6,1.3,0.9,2.9,3.1,3.4s2.6,1.2,2.6,2.9s0.1,4.2,0,5s1.8,1.7,1.8,1.7s0,1.2,0,2.6s2,1.8,2,2.5s0.3,3.7-0.1,5.9&#10;&#9;c-0.3,2.2,1.3,5,2.7,5.2c1.3,0.2,7.6,0,7.6,0s0.2,3,0.8,4.8s9.6,9.8,9.8,11.6s-4.1,7.2-4.1,8.4c0.1,1.2,0.8,1.7-2.2,6.8&#10;&#9;c-3,5.2-11,19.8-16,25.8s-16.5,21.2-12,31.5s7.8,13,5.2,28.8s-12.8,73.1-10.8,91.4c2,18.3,2.2,20-0.3,25c-2.4,5-2.1,10-2.1,10&#10;&#9;s-11.3,28.7-14.3,39c-3,10.3-4.7,20-8.3,26.3c-3.7,6.3-3.7,21-3.3,24c0.3,3,0.5,4.2-0.1,5.8s1.1,3.8,1.1,4.6c0.1,0.8,0.8,2,0.2,5.1&#10;&#9;c-0.5,3.1-0.9,3.8-0.1,5.4c0.8,1.7,3.2,5.4,2,9.2s-1.5,3.1-1.2,8.4s-5.3,61.3-6.5,66.3c-1.2,5-1.7,6-2.3,8.3s0,2.5-0.8,5.5&#10;&#9;c-0.8,3-0.5,1.3-2.3,5.2c-1.8,3.8-2.3,4.7-1.7,7.2c0.7,2.5,1.9,0.7-0.3,3.8c-2.2,3.2-2.6,2.8-2.2,5.3c0.3,2.5,0.3,8.8-3.5,18.3&#10;&#9;c-3.8,9.5-3.8,15.9-4.7,19.2s-3.6,7.8-4.6,8.8c-1,1.1-7.2,4.4-13.2,5s-10.8,3.4-11.3,4.9s-0.8,4,0.7,5.1s28.8,0,35,0&#10;&#9;s9.6,0.2,12.4-4.5s12.1-21.6,19.4-25.2s9.1-2.6,9.8,1s2,27.1,2,27.1l3.4,0.2c0,0-2.4-23.2-0.1-33.6s4.6-13.1-1-20.6&#10;&#9;s-7.1-8.9-8.5-8.5s-0.9-3.2,0.1-5.4s0.9-2.9,0.6-4.6c-0.3-1.7,0.1-1,1-2.6c1-1.6,0.1-1.4,0.2-4.9s7.2-30.4,12.9-43.4&#10;&#9;c5.7-13,9.4-39.9,6.5-51.7c-0.5-2,0.4-7,0.6-9.4s-0.5-3-0.2-5.6s0.6-2.9,2.2-4.9s1.6-0.2,1.6-4.1s0.6-4.8,2.6-6.9s22.6-27,30.6-41.5&#10;&#9;c0,0,16,31.5,24.5,43.8s8.8,13.2,12.8,20.2s4.1,5,5.4,6.9s0.4,2.6,2.4,4.5s3.4,1.1,3.9,3.2s0.6,4.2,2.4,4.8s3.6,0.4,4.1,2.2&#10;&#9;s3.3,4.8,5.8,6.5c2.5,1.7,20.5,34.2,30,45.5c9.5,11.3,10.5,12.8,11.5,17.2s2.3,3.2,2.8,4.8s1.2,3.2,2.1,5.8c0.8,2.5,2.2,1.9,3.5,5.7&#10;&#9;c1.3,3.8,2.8,3.8,2.3,6.7c-0.4,2.8,4.8,9.5,5.1,12.5s1.4,3.4,1.4,3.4s0.4,14.2,0.4,18.9c0,4.7,2.2,15,1.1,17.7&#10;&#9;c-1.1,2.7-1.9,4.2-6.5,5.5s-20.1,5.8-20,9.6s0.6,3.9,3.6,4.4s19,0,24.9,0c5.9,0,12.6-2,14-4.7c1.4-2.7,4.1-15,10.5-23.9&#10;&#9;c6.4-8.9,11.3-12.5,13.3-12.5s3.3,1.5,3.6,6.8s2.8,20.8,3.5,22.5l2.8-0.4c0,0-2-12.7-2.3-22.6c-0.3-9.9,1.3-21-2.2-26.5&#10;&#9;s-10.4-10.9-12.8-10.8s-2.5-2.5-2.5-2.5s-3-4.5-5-7.4c-2-2.9-2.1,0.1-2.6-4c-0.5-4.1-2.8-6.3-4.8-9.4c-2.1-3.1-3.3-2.7-3.3-5.6&#10;&#9;c0-2.9-0.7-3.3-2.2-4.4c-1.6-1.1-9.2-17.8-12.3-27.8s-11.5-31.4-26.2-44.7c-2.5-2.2-4.8-4.9-5.6-6.9s-1-3.1-2.8-4.9s-3.4-4.6-3.9-7&#10;&#9;s-1.8-4.9-3.4-7.1s-1.3-8.1-4.5-12.1c-3.2-4-11.2-36.5-11.7-40.7c-0.5-4.2-1-3.8,5.7-3.8c6.7,0,5.7-0.1,5.6-8.4s-0.9-6.2,8.4-6.6&#10;&#9;s25.9-0.1,27-4.8s-0.9-36-1.6-43.5s-0.5-10.9-3.2-11.3l-48.4-127.9l-1.8,3.4l47,124.4c0,0-24.9,0.1-34.8,1.2c0,0-6.4-29.7-6.4-36.3&#10;&#9;c0-6.7-2-48.3-2.3-54.3c-0.3-6,2-32,2-35.7c0-3.7,8.3-11.7,8.3-18.7s8.7-3.3,4.7-24.7c-4-21.3,3.3-16.3-9.7-34&#10;&#9;c-13-17.7-17.7-24.7-22-43.3s-14.7-35.3-28.3-39.7C951.3,210.5,938.1,214.8,938.1,214.8z" transform="matrix(1, 0, 0, 1, 0, 0)"/><path id="XMLID_1_" fill="#D2713C" d="M1030.1,220c-0.4,1.8-0.8,17.7-0.9,22.5c-0.2,4.8,1.7,8.9,4.1,10.6c2.3,1.7,2.8,1.9,2.9,4.7&#10;&#9;s-0.8,11.9-0.8,13.7c0,1.9,6.2,2,6.2,2s1.1,3,1.8,3.6c0.8,0.6,1.6,1.6,1.6,1.6s0.2,2.2,0,2.6c-0.2,0.4,0.7,3,1.4,3.8&#10;&#9;c0.7,0.8,1.9,2.6,1.7,4.1c-0.1,1.4-1.2,4.6,1,6.2s1.6,1.1,1.6,1.1s-3.5-0.1-5.3,2.3c-1.7,2.4-2.3,10.2-0.6,13.5&#10;&#9;c1.7,3.3,3.2,3.9,3.2,7.2s0.5,7.1,1.4,8s-1.7,12.3-2.6,20.9s0.3,6.5-4.5,38s-4.5,73-5.7,76.6s-10.5,24-13.2,35.1s7.8,21.3,7.8,21.3&#10;&#9;s10.2,27.6,10.2,40.8c0,13.2-1.2,18,3,18c4.2,0,24.6-5.4,27-2.7c2.4,2.7,4.2,10.5,4.2,10.5s-8.7,38.4-9.3,42.9&#10;&#9;c-0.6,4.5-4.2,9.3-5.1,22.2c-0.9,12.9,0,19.5-1.2,29.4c-1.2,9.9-6.6,22.8-12.3,43.8c-5.7,21-3.9,33.9-7.2,49.5&#10;&#9;c-3.3,15.6,3.3,13.8,0.3,27.9c-3,14.1,2.1,20.1,2.1,20.1l-7.8,8.9l-2.3,4.4c0,0-8.4,5-11.6,5.1c-3.2,0.2-10.1-1.5-13.7-1.7&#10;&#9;s-4.5-0.2-6.9,2.6c-2.4,2.7-5.1,5.9-4.1,10.1c1.1,4.2,17.1,11.1,21.5,12.2s18.5,4.8,27,7.5c8.6,2.7,29.7,6.6,33.9,6.5&#10;&#9;c4.2-0.2,6.9-0.3,6.2-6.8c-0.8-6.5-2.9-15.2-1.7-15.6s2.1-2.9,3.2-6.8c1.1-3.9,0.8-8.1,3.2-12.5s-0.8-12,0-17.4&#10;&#9;c0.8-5.4,2.9-13.5,9.2-28.8c6.3-15.3,6.3-29.1,9-42.6c2.7-13.5,4.8-38.1,6-41.7s2.9-1,5.6,3.8c2.7,4.7,6.3,5.6,6.3,8.6&#10;&#9;c0,2.9,0.2,11.7,5.4,25.7c5.2,14,8.1,34.2,15.5,43.2c7.4,9,16.9,30.9,18.2,33.1s2.3,8.8,0,13.1s-3.4,11.5-3.4,11.5&#10;&#9;s-3.8,5.1-11.5,7.3c-7.7,2.3-17.7,3.2-20.2,4.7c-2.5,1.6-4.1,2.9-4.4,5.6s-0.8,6.9,2.4,8.2c3.2,1.4,14.8,4.5,37.9,1.6&#10;&#9;c23.2-2.9,15.2-4.3,23.9-7.2s14.2-2.5,15.9-1.5s27.2-6.2,28-6.9c0.8-0.7,4.3-4.7,3.8-6.8c-0.5-2-3.1-6.2-4.4-7.2&#10;&#9;c-1.4-1.1-3.2-7.2-2.6-8.3c0.6-1.1-1.4-7.5-3.5-10.5s-5-13.4-5.4-15.4c-0.5-2-27.5-75-34.2-87.6c-6.8-12.6-7.4-31.4-14.9-42.5&#10;&#9;c-7.5-11.1-3.3-8.9-5.6-18.8c-2.3-9.9-8.2-24.1-9.5-32s-4.1-14.2-2.9-21.8c1.1-7.7,1.8-12.4,0-17.8c-1.8-5.4,2.3-14.6,2.3-14.6h21.2&#10;&#9;c0,0-3.4-57,0-77c3.4-20-0.6-57.3-0.6-60.3s4.5-13.5,3.6-21c-0.9-7.5-2.4-10.5-1.5-16.1c0.9-5.6-0.5-20-2.1-34.2&#10;&#9;c-1.7-14.3-2.1-22.2-1-29.4s-2.5-10.1-8.6-19.1c-6.1-9-17.9-23-22.3-25.9c-4.4-2.9-11.8-9-12.8-9.9s1.3-6.6-0.5-9.2&#10;&#9;c-1.7-2.6-3.9-3.2-4.5-6.8c-0.6-3.7,0.5-5.4-2.6-7.3c-3.1-1.9-9-0.9-10.3-0.8c-1.3,0.1-3.2-6.7-4.7-6.8s-4-0.9-4.9-0.1&#10;&#9;c-0.9,0.8,2.6-11.3,0.3-23.6c-2.3-12.4-6.3-23.9-14-25.9c-7.7-2-27-7.2-39.6,0C1039.3,206.1,1031.8,211.8,1030.1,220z" transform="matrix(1, 0, 0, 1, 0, 0)"/><path id="XMLID_21_" fill="#D2713C" d="M826,170c-16.5,1.7-22.4-0.2-29.8,9.2c-7.4,9.4-11.5,14.1-9.4,20.1c2,6,6.3,12,4.6,14.7&#10;&#9;s-6.3,9.3-7.5,11.7c-1.1,2.4,0.9,4.5,3.9,5.4s2.9,3.3,2.8,4.9c-0.2,1.6-0.2,3.7,0.4,4.2c0.6,0.5,1.9,1.3,1.9,1.3s-0.2,1.3-0.4,2&#10;&#9;s1.4,1.6,1.8,2.6s1.2,2.8,0.8,5.2c-0.4,2.4,1.1,6.6,3.2,7.1c2.1,0.4,8.4,0.8,11,0c2.6-0.8,7-0.7,6,5c-1,5.7-7.7,23.1-12.6,29.1&#10;&#9;c-4.9,6-13.7,22-16.1,28.3s-8.9,25.3-17.1,37.8s-7.7,20.8-7.7,32.6c0,11.7,1.1,47.4,0,66.8s-6.8,23.7-4,32.6&#10;&#9;c2.9,8.9,6.6,20,9.1,20.8c2.6,0.9-22,34.6-25.7,37.4c-3.7,2.9-5.2,3.6-10.4,2.5c-5.1-1.1-13.9,0.9-21.4,13.3&#10;&#9;c-7.5,12.4-26.3,47.1-26.6,52.7s2.1,14.6,11.8,19.9c9.6,5.4,39.6,19.9,39.6,19.9s-7.3,36.2-10.3,46.5c-3,10.3-7.1,13.3-6.6,15.4&#10;&#9;c0.4,2.1,1.5,6.9-0.4,8.1c-1.9,1.3-1.7,0.4-2.1,3.9c-0.4,3.4-3.4,7.3-4.5,8.6s-1.1,0.9-1.9,4.9c-0.9,4.1-7.5,15.2-7.5,15.2l0.4,1.5&#10;&#9;c0,0-9.9,17.6-10.5,18.8c-0.6,1.3-2.4,9.9-4.3,12.6c-1.9,2.8-5.7,5.7-16.6,6.3c-10.9,0.6-15.6-0.3-16.7,1s-1.9,5,5.1,7.9&#10;&#9;c7,2.9,15.9,5.4,22.3,8.1c6.4,2.7,17.4,6.3,23,0c5.6-6.3,15.1-16.7,20.3-19.1s6.1-3.6,8.1-2.4c2,1.1,3.9,1.6,2.3,8.1&#10;&#9;c-1.6,6.6-6.1,22.3-6.1,24.4c0,2.1,3.7,1.3,3.7,1.3s2.5-17.7,7.3-26.3s10.5-14.4,10-20.1c-0.6-5.7-3.6-18.7-7-19.8&#10;&#9;c-3.4-1.1-1.3-6.7,0-9.3c1.3-2.6,1.4-3.6,1.1-5.9c-0.3-2.3-0.1-3.6,2.1-5.6c2.3-2,1.3-2.3,1.7-4.9c0.4-2.6,10-24,17.4-36.3&#10;&#9;s11.1-25,10.6-30.1c0,0,5.6,2.9,8-0.7c2.4-3.6,11.3-16.5,16.2-36.2c4.9-19.7,3.6-14.6,6.9-21.6c3.2-7.1,2.4-13.9,2.4-18.4&#10;&#9;s-5.1-7.9-5.1-7.9s13.9-16.3,16.3-24.4c0,0,12,22.9,17.4,32.6c5.4,9.7,12,27.7,25.4,44c13.4,16.3,37.7,63.7,41.6,71&#10;&#9;c3.9,7.3,3.3,7.7,4.4,9.4s3.4,3.1,3.4,4.9s-0.6,0.9,0,4.3s3.3,3.9,3,6.4c-0.3,2.6-2,3.3,0.7,6.4c2.7,3.1,3.4,2.7,3.4,6.6&#10;&#9;c0,3.9,3.3,15.9,3.3,17.3c0,1.4-1.6,15.1-2,19.8c-0.4,4.7,2.3,13.3-2,17.1s-20.3,8.7-25.1,10.7s-7.1,4.6-4.6,6.1&#10;&#9;c2.6,1.6,9,2.3,21.1,1.7c12.1-0.6,26,1.1,29.4-4.7c3.4-5.9,15.1-27.8,19.3-30.4c4.1-2.6,7.9-1.4,8.1,0.4c0.3,1.9,3.3,30.7,3.3,30.7&#10;&#9;h2.9c0,0-2-17.4-1.7-23.8c0.3-6.4,1.4-15.7,3.3-21.6c1.9-5.9,1.1-8.4-4.9-14.3c-6-5.9-8.1-8.4-9.9-6.9c-1.7,1.6-2.4-1.9-2.4-1.9&#10;&#9;s-2.3-1.1-2.6-5.4c-0.3-4.3-1.1-7.3-3.1-7.4c-2-0.1-3.3-1.4-3.3-3.7c0-2.3,1.3-1.3-0.3-3.6c-1.6-2.3-3.1-0.9-2.9-4.6&#10;&#9;c0.3-3.7-11.1-25.6-14.6-46.7s-22.8-41.7-25.1-47.7c-2.3-6-15-29.6-16.1-37.3s-11.6-46.9-12-60c-0.4-13.1,0.4-16.1,6.2-18.6&#10;&#9;c5.8-2.6,4.7-0.9,4.7-11.1s-0.9-38.8-7.1-58.8c-6.3-20-7-15.5-6.1-22c0.9-6.5,0.1-8.1-1-13.5c-1.1-5.4-2.3-9.6-0.7-13.3&#10;&#9;c1.6-3.7,1.3-0.7,1.6-7.4c0.3-6.7,3.6-12.8,3.8-16.4c0.2-3.6,10.7-1.3,15.4-11.6c4.7-10.3,6.8-20.8,4.8-27.7&#10;&#9;c-2-6.9,8.3-13.4,7.4-32.8c-0.9-19.4,2.9-14.6-8-31.7s-14.6-26-21.1-47.4s-11.1-37.5-24-45C840.4,165.3,826,170,826,170z" transform="matrix(1, 0, 0, 1, 0, 0)"/><path id="XMLID_32_" fill="#964027" d="M1361.2,787.8c-6.1-5.6-9.6-5.3-9.6-5.3s-13.7-11.2-28.4-46.6&#10;&#9;c-14.7-35.4-22.1-55.3-39.9-73.2c-3.7-3.7-7.7-17.7-8.2-22.2c-0.5-4.6-0.2-3.2,4.5-5.3c4.7-2.1-0.5-13.4-1.8-20&#10;&#9;c-1.3-6.6,2.6-19.4,4.7-29.9c2.1-10.5,0.3-18.9,0.5-23.1c0.3-4.2,3.4-8.4,3.4-8.4s0.8,2.7,1.8,4.7c1,2,4,5.8,8.4,7.5&#10;&#9;c4.4,1.8,8.3,1.8,9.6-1.1c0,0,19.6-0.7,23.8-0.6c4.2,0.1,19.1-7.4,29.6-15.1c10.5-7.7,17.2-19.6,13-34.7&#10;&#9;c-4.2-15.1-8.4-45.2-15.4-51.5c-7-6.3-16.5-45.9-17.9-50.8c-1.4-4.9-21.4-118.8-23.3-125.8c-1.9-7-9.5-14.5-14.7-15.1&#10;&#9;c-0.1,0-0.1,0-0.2,0c-0.4-0.7-0.7-1.1-1-1.4c-6.6-4.9-14.2-10.1-16.1-12.7s-4.5-13.4-7.6-16.7c-3.2-3.3-12.9-6.4-12.9-6.4&#10;&#9;s-2.1-6.8-0.8-8.8c1.3-2,6.7-6.3,8.3-11.9c1.6-5.6,4.2-4.2,5-9.7c0.8-5.5,4.5-4.5,5.6-13.7c1.2-9.2,1.1-12.2,1-13.2&#10;&#9;c-0.1-1.1,2.5-8.4,4.6-11c2.1-2.6,7-14.9,4-22.8c-3-7.9-10.5-12.3-17.3-13.8c-6.8-1.6-11.6-1.9-14.4,1.4c-2.8,3.3-4,9.6-8.1,8.9&#10;&#9;c-4-0.7-17,0-17,0c-10.2,1.3-24.2,10.2-24.7,12.7c-0.5,2.5,0.7,5.8,0.7,5.8s-4.5,9.3-5.3,12s-2.4,4.7-2.4,4.7s-6.6-0.6-8.5,0&#10;&#9;c-1.9,0.6-2.2,12.1-1.1,16.5c1,4.4,5.1,5.8,5.1,5.8s-1.3,4.7,2.1,11.6c3.4,6.9,4.2,11.7,4.2,13.3s1.2,1.8,1.6,3.3&#10;&#9;c0.4,1.5,0.8,7.5,2.3,8.9s3.4,3.7,8,3.6c4.6-0.1,8,0.2,8.3,2.3s0.5,3.1,0.5,3.1s-4.6,3.8-6.6,5.5s-4,3.7-7.9,4.9&#10;&#9;c-3.9,1.2-13,6.2-17.5,6.4s-6.4-0.3-11.6,1.2s-10.4,4.2-12.2,7.9c-1.8,3.7-5.1,9.7-6.7,15.8s-5.5,49.9-7.9,64.1&#10;&#9;c-2.4,14.2-8.9,47.3-11.8,52.5c-2.9,5.3-2.2,5.5-5.4,6.2c-3.2,0.7-3.7,3.3-4.8,6.2s-5.3,13.8-7.6,15.9c-2.4,2.1-2.4,10.4-3.3,17.5&#10;&#9;c-0.9,7.1-13.3,104.1-12.5,106.4s20,16,27.3,15.8c7.4-0.3,33.6-4.5,33.6-4.5s-1,51.7-5.5,58.5c-4.5,6.8,3.9,7.6,3.9,7.6&#10;&#9;s-3.4,12.6-3.9,16.8c-0.5,4.2-0.3,15.5,0.3,19.4c0.5,3.9,3.7,31.8-4.7,83.7c-8.4,52-12.9,81.1-25.5,91.6c-12.6,10.5-20.6,15-20.6,15&#10;&#9;h-4.3c0,0-11,7.4-14.4,9.2c-3.4,1.8-2.2,7.7-2,8.5c0.3,0.8,3.7,2,20.1,3.7c16.4,1.7,40.3-0.9,50.1-2.4s16.4,0,18.3-4.5&#10;&#9;c1.9-4.6,5.1-3,1.4-10c-3.7-7-6.7-15.6-8.9-16.1c-2.3-0.5-3-7.2-1.4-14s25.6-72.1,32.9-94.7s2.9-55.4,3.9-66.9s6.3-25.7,9.2-29.7&#10;&#9;c0,0,7.9,13.9,9.5,19.7c1.6,5.8,5.8,16.8,11.8,22.3c6,5.5,13.4,16.8,18.4,24.7c5,7.9,30.4,41.8,41.2,52.7&#10;&#9;c10.9,10.9,24.9,37.1,26.6,51.1c1.8,14,1.1,27.5,1.1,27.5l-1.3,1.2l-1.6,2.5c0,0-8.3,4.6-9.7,8.1c-1.4,3.5-2.9,5.3-1.2,7.6&#10;&#9;c1.7,2.4,1.6,2.4,12.3,2.2c10.8-0.1,17.3-0.7,21.4-3.9c4.1-3.3,12-23,11.3-28.6c-0.7-5.6,1.1-9.3,6.1-18.6&#10;&#9;C1370.3,800.4,1367.3,793.4,1361.2,787.8z M1325,414.5c0-0.4,0.8-12.7,1.4-23.1l4.5,21.7C1330.9,413.1,1325,415.2,1325,414.5z" transform="matrix(1, 0, 0, 1, 0, 0)"/><path id="XMLID_2_" fill="#964027" d="M659.7,65.3c-15,5.5-21.1,11.9-24.5,19.4c-3.4,7.5-7,19.6-7.5,23.8s7.5,23.9,7.5,23.9&#10;&#9;l-1.8,2.2l7.5,14.6c0,0-0.4,8.7-0.3,12.4c0.1,3.7,4.2,11,4.2,11l-8.4,8.6c0,0-19.3,5.1-25.3,8.7c-6,3.6-20,7.7-24,12.5&#10;&#9;c-4,4.7-9.3,27.3-5.9,41.7c3.4,14.4,17.3,42.5,18.4,56.1c1.1,13.6,7.6,26.9,8.2,32.6c0.6,5.7-2,35.7-4.8,45.6&#10;&#9;c-2.8,9.9-1.4,20.1-0.3,24.9c1.1,4.8,6.2,5.9,6.2,5.9s-2,15-7.6,22.9c-5.7,7.9-3.4,9.9,2.5,13.3c0,0-6.8,17.6-7.4,26.3&#10;&#9;s1.4,10.2,1.4,18.7s2,15.3,1.7,24.9c-0.3,9.6,2.3,13.3,2.3,13.3s1.1,10.2,1.1,26c0,15.9,0,30.6,0.6,39.9c0.6,9.3,2,28.9,2.5,36.8&#10;&#9;s-6.2,11.6-6.2,18.1c0,6.5,1.1,8.2,0,11c-1.1,2.8-3.7,5.9-3.7,11c0,5.1-5.7,20.1-6.5,35.7c-0.8,15.6-4.2,29.4-5.7,36.5&#10;&#9;c-1.4,7.1-0.3,15-0.3,15s-5.7,7.9-6.2,14.7s2.3,18.4,0,24.1c-2.3,5.7-2.7,9.9-0.1,17c2.6,7.1-3,11.2-3.3,14.3&#10;&#9;c-0.3,3.1-2,12.6-2.1,15.3c-0.1,2.7,10.9,21.5,12.7,25.5c1.8,4,6.4,6.8,13.4,6.8s38.3-1.4,40.5-1.7c2.2-0.4,5.4-2.1,4.5-5.5&#10;&#9;c-0.8-3.4-0.9-2.9-3.6-6.3c-2.6-3.4-7.3-8.7-8.6-11.2c-1.3-2.5-4.1-4.6-5.1-23c0,0,4.7,0.8,3.3-5.1c-1.4-5.9-2.5-18.4-1.9-21.3&#10;&#9;c0.6-2.8,9.1-4,7.9-10.6c-1.1-6.7-7.8-7.9-4.8-13.7s10.5-15.1,10.3-28.7c-0.2-13.6,0.6-33.4,5.5-43.2s0.4-7,1.5-11.7&#10;&#9;c1.1-4.7,5.5-9.4,5.1-16.8c-0.4-7.4,1.7-11.1,2.8-16.2c1.1-5.1,3.6-7.9,2.5-14.3s0-18.1,2.5-24.9c2.5-6.8,7.4-34.7,8.3-42.1&#10;&#9;c0.8-7.4,9.1-12.9,9.2-19.7s-1.4-16.6,5.2-2.5c6.7,14,10.6,18.7,13.3,27s5.4,4.5,5,11.7c-0.4,7.2,5.2,19.4,5.8,29.3&#10;&#9;c0.6,9.9,7.2,19,6.1,31.4c-1.1,12.5-0.8,19,2.3,25.5c3.1,6.5,6.5,10.8,6.5,23.2c0,12.5,10.5,49.8,11.6,61.7&#10;&#9;c1.1,11.9,8.8,13.6,10.5,23.5c1.7,9.9,0.8,21.2,0,30.6s8.2,9.9,9.3,11.9c1.1,2,1.8,14.6,3,16c1.1,1.4,1.4,15.7,2,20.4&#10;&#9;c0.6,4.7,2.5,10.9,7.6,11.2c5.1,0.3,15.9,0.9,26.5-4.2c10.6-5.1,50-24.2,58.5-36.3c8.5-12.2,10.6-25.3,3-30.2&#10;&#9;c-7.6-4.8-17.8-2.1-28.2,1.4s-18.8,0.7-18.8,0.7s-5.5-9.1-4.6-10.6c0.8-1.5,3.2-10.9-2.6-14.4s-3.4-6.3-1.2-10.8&#10;&#9;c2.1-4.5,1.1-9.2-5.7-17.3s-7.8-12.4-7.6-30.2s-5.9-42.3-8.7-50.4s1.9-14.5-0.6-22.5c-2.5-7.9-10.8-18.5-9.4-27.2&#10;&#9;c1.3-8.7,5.9-46.4,4.5-65.9c-1.3-19.4-13-82.7-13-86.9c0-4.2-1.6-48.7-3.8-57.5c-2.3-8.8,0.2-37,0.2-47.2c0-10.2-1.7-17.6-1.7-17.6&#10;&#9;s3.5-4.1,2-6.7s-1.5,0.8-1.9-4c-0.4-4.7-0.3-4.7-1.1-7.3c-0.8-2.5-2.8-0.4-1.7-4.6c1.1-4.2-1.2-10.6-1.2-14.9&#10;&#9;c0-4.3,5.9-29.7,4.7-42.5c-1.1-12.7,6.8-27.5,2-43.6c-4.8-16.1-11.9-26.9-24.1-31.4c-12.2-4.5-23.6-7.9-24.6-10.6&#10;&#9;c-1-2.7-1.7-11.7-1.7-11.7s4.7-0.7,6-2.1c1.3-1.4,5.3-11.3,6-15.6s2.5-24.7,2.5-24.7s-4.4,2.5-2.4,2.5s4.3-3.4,6.3-7.6&#10;&#9;c2-4.2,1.9-5.7,2.8-9.1c0.9-3.4-3.8-4.2-6.4-4.2s0.7,1.1,0.7,1.1s-3.8-8.2-2.9-11.9c0.8-3.7,3.5-13.7,2-18.2s-6-7.5-6-7.5&#10;&#9;s-0.7-6.4-7.9-10.4C698.4,65.3,676.2,59.3,659.7,65.3z" transform="matrix(1, 0, 0, 1, 0, 0)"/><path id="XMLID_42_" fill="#964027" d="M340.8,136.7c-9.3-5-19.9-6.3-23.9-4.2s-4.8,5.9-7.3,6.6c-2.5,0.7-2.7,0.1-4.5,0.5&#10;&#9;c-1.8,0.4-3.8,0.9-5.9,2.9c-2.1,2-4.5,2.4-2.4,4.1c0,0-3,0.9-6,3.7c-3,2.8-8.1,3.2-8.4,6.7c-0.3,3.5,0.1,2.3-2.1,5.1s1.6,7.5,6,8.8&#10;&#9;c0,0-0.1,4.1,0.3,7.4c0.5,3.3,1.2,5.7,1.2,8.2c0,2.5,0.1,5.1,1.1,6.2c1,1.1,2.6,3.2,1.6,5.4c-0.9,2.2-1.2,7.9-2.4,10&#10;&#9;c-1.2,2.1-0.7,5.6,1.1,6.2c1.8,0.7,4-0.3,4.6,0c0.7,0.3,0.8,0.9,0.8,1.4c0,0.5-0.2,4.9,0.5,6.1c0.8,1.2,1.8,2.2,2.7,2.2&#10;&#9;s1.7,0.4,1.7,0.4s-0.2,1.2-0.2,1.9c-0.1,0.8,0.2,2,1,2.7s3.6,1.9,3.5,3.6c-0.1,1.7-0.6,4.8,0.5,5.9s7.4,4.2,9.6,4.2s5.3-1.1,8-1.2&#10;&#9;c2.7-0.2,4.8,1.8,5.4,2.5c0.6,0.7-1.6,3.7-1.6,3.7s1.6,5.6,2.4,7c0.8,1.4,3.5,2.6,2.6,3.4s-4.7,3.4-8.5,8.8s-7.6,10.9-8.9,17.7&#10;&#9;c-1.2,6.8-4,25.6-5.3,31.2c-1.2,5.6-0.2,17.5-1.2,23.3s-3.2,9.5-4.3,11.1s-0.5,4.7-0.4,5.7c0.1,1.1,0.1,4.3-1.3,4.4&#10;&#9;s-3.5-0.1-3.5,1.7c-0.1,1.8-0.6,1.8-1.4,2.3s-1.2,1.1-1.3,2.3c-0.1,1.2,0.3,2.2-1.1,2.2s-2.4-0.6-2.6,0.9c-0.1,1.4-1.1,1.4-1.4,1.9&#10;&#9;c-0.3,0.5,0.1,2,0.3,2.6s1.4,1.2,1.4,1.2s-4.6,3.5-14.1,16.2c-9.5,12.8-18,21.7-25.2,27.2c-7.2,5.5-17.7,14.9-22.2,16.6&#10;&#9;s-13.4,2.8-17,5.3c-3.6,2.5-10.7,7.8-13.4,10.2c-2.7,2.4-5.3,5.3-7.3,7.5s-2.9,7.3-3.5,10.3c-0.5,3-0.4,4.9,0.5,5.2&#10;&#9;c0.9,0.3,3.7,0.3,4.9-1c0,0,0.2,2.9,1.1,4.5c0.9,1.6,3,1.7,3.8,1s2-2.3,2-2.3s-0.2,4.4,1.7,5.3s4.1-2,4.1-2s1.5,3.5,4,2.9&#10;&#9;s8.7-4.9,10.9-7.6c0,0,7.6-2.5,14.2-8.8s5.2-7.8,8.7-11.7c3.5-3.9,12.4-9.5,30.6-19.3s31-21.9,31-21.9s-0.2,13.3,0.2,18.9&#10;&#9;c0.4,5.6-2.3,14.4-4,25.4c-1.8,11,0.2,26.3,1.8,29.1c1.6,2.8,12.4-0.7,12.4-0.7s-3.9,8.6-4.4,14.2c-0.5,5.6-1.4,12.6-4.2,16.5&#10;&#9;c-2.8,3.9-3.3,3.2-3.5,7.2c-0.2,4-6.1,3.2-10.9,17.7c-4.7,14.5-7.4,19.6-10.3,25.4c-3,5.8-2.5,7.2-3.5,13.8&#10;&#9;c-1.1,6.7-5.6,12.6-8.1,19.1s-0.5,7.2-0.5,7.2s-3.9,10.4-3.9,12.7c0,2.3,3.5,3.7,3.5,3.7s-2.5,13.9,1.2,21.6&#10;&#9;c3.7,7.7,8.6,16.8,11.7,32.1c3.2,15.2,10.2,62.6,10.2,77.7c0,15.1-4.6,34.7-7.2,40.1c-2.6,5.4-4.9,6.8-4.9,6.8l-8.2,5.3l-5.8,3.9&#10;&#9;c0,0-6.1,8.1-11.2,11.4c-5.1,3.3-15.4,7.7-22,7.1s-6.2-0.9-7,1.8c-0.8,2.8-1.8,5-1.2,5.4c0.7,0.4-1.6,2.9-1.3,3.4&#10;&#9;c0.3,0.5,19.6,8.3,33.4,8.7s22.1-0.5,41-5.1s31-8.1,31-9.3s-0.4-5.6-0.4-5.6l4-3.5l-2.8-3.3c0,0,0.4-9.3-1.8-14.7&#10;&#9;c-2.1-5.4-4.6-5.4-4.6-5.4s-2.5-10.5-2.5-16.1c0-5.6,2.1-30.9,7.7-59.6c5.6-28.7-0.4-54.7-4.2-67.3c-3.9-12.6-7.2-17.2-5-26.2&#10;&#9;c0,0,9.5,3,13.4,4.6s10.3,2.8,11.4,2.8c1.2,0,1.6-1.7,2.8,2.4c1.2,4.1,3.7,3.4,7.1,2.6c3.4-0.8,5.3-1.1,5.3-1.1s1.4,4.5,3.4,9.7&#10;&#9;c2,5.3,5.6,6.3,7.3,12.8s14.9,58.4,19.1,68.9c4.2,10.5,15.4,50.1,12.6,58.9c-2.8,8.8-3.7,11-3.7,11l-1.8-0.3l-12.9,4.9&#10;&#9;c0,0-10.3,10.5-13.1,12.1c-2.9,1.6-6.9,2.7-10.2,2.4s-19.9-3.9-21.7-3.3c-1.8,0.5-3.7,4.2-3.7,4.2l0.3,4.7l-1.5,2.6&#10;&#9;c0,0,14.4,10.3,28,11.4c13.7,1.1,36.2,0.2,49.3,1.2c13,1.1,31.6,1.2,33.5-0.8c2-2,0.9-5.7,0.9-5.7s3.5-9.2,1.3-18.4&#10;&#9;c-2.2-9.2-4.9-8.7-4.9-8.7s-8-25.9-10.1-41.4c-2.1-15.5-0.6-63.7-6.6-84c-6-20.3-14.2-36.1-15-51.6h1.8l-0.3-20.8l-1.8-1.8&#10;&#9;c0,0-1.6-30.1-3.2-33.9c-1.6-3.9,0.5-3.2-0.5-6.7s0.2-0.4-1.1-3.5c-1.2-3.2-2.6-1.6-0.4-5.8c2.3-4.2,1.8-7.4,1.8-7.4l9.3-6.3&#10;&#9;c0,0,6.1,4.6,7.6,4.6s2.6-2.9,2-5c-0.7-2.1-2.9-5.9-2.9-5.9l1.4-2c0,0,1.6,0.9,2.8,0.9c1.2,0,4.9-1.1,5.4-4.3c0,0,4.3-1.2,5.5-5&#10;&#9;c0,0,4.7-0.3,5.3-3.5c0.5-3.3-2-4.6-2.2-7.8s-0.4-15-2.5-18.8c-2.1-3.8-9.9-12.2-7.8-20c2.1-7.8,9.2-60.9,6.8-88.5&#10;&#9;c0,0,3.2-2.6,3.9-4.1s-1-10.3-1.3-13.1c-0.4-2.9-1.7-3.9-1.7-3.9s1-31.5,1-40.6s-2.5-15.1-2.5-19.8c0-4.7-1.1-21.6-5.3-29.8&#10;&#9;s-16.7-23.7-25.1-30c-8.4-6.3-12.1-13.1-15.4-15.1c-3.3-1.9-11-5.8-11-5.8l1.1-1.8c0,0-1.6-11.2-2.4-12.7c-0.8-1.4-8.5-0.7-10.1-0.7&#10;&#9;c0,0-1.8-5.6-2-7.8c-0.3-2.2-0.9-15,0-20.4s5.1-19.2,1.4-27c-3.7-7.8-1.7-12.2-8.4-16s-11.8-4.3-14.7-5.4&#10;&#9;C343,137.7,340.8,136.7,340.8,136.7z" transform="matrix(1, 0, 0, 1, 0, 0)"/></g></svg>